<svg width="42" height="47" viewBox="0 0 42 47" fill="none" xmlns="http://www.w3.org/2000/svg">
<path d="M36.8511 1.54401H5.14896C3.12463 1.54401 1.48358 3.39018 1.48358 5.66755V41.3324C1.48358 43.6098 3.12463 45.456 5.14896 45.456H36.8511C38.8754 45.456 40.5165 43.6098 40.5165 41.3324V5.66755C40.5165 3.39018 38.8754 1.54401 36.8511 1.54401Z" fill="#0B0C10" stroke="#66FCF1" stroke-width="2" stroke-miterlimit="10"/>
<path d="M6.93812 7.28772H18.2921C18.519 7.28772 18.8975 7.53464 18.8975 8.09381V14.7851C18.8975 15.3442 18.519 15.5912 18.2921 15.5912H6.93812C6.71123 15.5912 6.3327 15.3442 6.3327 14.7851V8.09381C6.3327 7.53464 6.71123 7.28772 6.93812 7.28772Z" fill="#0B0C10" stroke="#66FCF1" stroke-width="2"/>
<path d="M23.5 12H34.5C35.3284 12 36 12.6716 36 13.5C36 14.3284 35.3284 15 34.5 15H23.5C22.6716 15 22 14.3284 22 13.5C22 12.6716 22.6716 12 23.5 12Z" fill="#0B0C10" stroke="#66FCF1" stroke-width="2"/>
<path d="M7.5 20H34.5C35.3284 20 36 20.6716 36 21.5C36 22.3284 35.3284 23 34.5 23H7.5C6.67157 23 6 22.3284 6 21.5C6 20.6716 6.67157 20 7.5 20Z" fill="#0B0C10" stroke="#66FCF1" stroke-width="2"/>
<path d="M7.5 28H34.5C35.3284 28 36 28.6716 36 29.5C36 30.3284 35.3284 31 34.5 31H7.5C6.67157 31 6 30.3284 6 29.5C6 28.6716 6.67157 28 7.5 28Z" fill="#0B0C10" stroke="#66FCF1" stroke-width="2"/>
<path d="M7.5 36H34.5C35.3284 36 36 36.6716 36 37.5C36 38.3284 35.3284 39 34.5 39H7.5C6.67157 39 6 38.3284 6 37.5C6 36.6716 6.67157 36 7.5 36Z" fill="#0B0C10" stroke="#66FCF1" stroke-width="2"/>
</svg>
