<svg width="80" height="80" viewBox="0 0 80 80" fill="none" xmlns="http://www.w3.org/2000/svg">
<rect x="6" y="66" width="68" height="8" rx="4" fill="#66FCF1"/>
<path d="M12 63L12 48C12 45.2386 14.2386 43 17 43V43C19.7614 43 22 45.2386 22 48V63H12Z" fill="#66FCF1"/>
<path d="M27 63L27 32C27 29.2386 29.2386 27 32 27V27C34.7614 27 37 29.2386 37 32V63H27Z" fill="#66FCF1"/>
<path d="M42 63V11C42 8.23858 44.2386 6 47 6V6C49.7614 6 52 8.23858 52 11V63H42Z" fill="#66FCF1"/>
<path d="M57 63V20C57 17.2386 59.2386 15 62 15V15C64.7614 15 67 17.2386 67 20V63H57Z" fill="#66FCF1"/>
</svg>
