<svg width="55" height="48" viewBox="0 0 55 48" fill="none" xmlns="http://www.w3.org/2000/svg">
<path fill-rule="evenodd" clip-rule="evenodd" d="M32.0899 7.19876V7.34235L32.1198 7.37107V7.48594L32.1498 7.51466V7.60082L32.1797 7.62953L32.2096 7.65825V7.91672H32.2395V7.97415V8.03159V8.08903V8.14647V8.2039V8.26134V8.34749V8.43365V8.5198V8.60596V8.69211V8.72083V8.80699V8.89314V9.00802V9.06545V9.12289V9.20905V9.2952V9.38136V9.46751V9.52495L32.2694 9.55367V9.81213H32.3891L32.4191 9.84085V10.4152H31.7907L31.6411 10.3865V10.3578H30.923L30.7135 10.3291V10.2716H30.5639L30.4143 10.2429L30.3544 10.2142L30.2946 10.1855L30.2647 10.1568V10.128H30.2048L30.145 10.0993L30.0552 10.0706L30.0253 10.0419V10.0132L29.9954 9.98444H29.9056L29.7859 9.95572L29.6962 9.92701H29.6662L29.6363 9.89829H29.5765V9.86957L29.5465 9.84085H29.4568H28.8883V9.89829V9.92701V9.98444V10.0132V10.0706V10.0993V10.1568V10.1855V10.2429V10.2716V10.3291V10.3865H29.367V10.4152H29.3969L29.4269 10.4439H29.4867L29.5166 10.4727H29.5765L29.6064 10.5014H29.8757L29.9056 10.5301H29.9954L30.0253 10.5588H30.0851L30.1151 10.5875H30.145L30.1749 10.6162H30.2048L30.2348 10.645H30.2647V10.6737H30.3245V10.7024L30.3844 10.7598V10.7886H30.4143L30.4442 10.8173V10.846H30.4741V10.9034L30.504 10.9322V11.4491L30.4442 11.5065V11.564H30.4143L30.3844 11.5927L30.3544 11.6214L30.3245 11.6501L30.2946 11.6788L30.2348 11.7075L30.2048 11.7363H30.1749L30.145 11.765H30.1151L30.0851 11.7937H30.0552L29.9954 11.8224H29.9655L29.9355 11.8511L29.8757 11.8799H29.8458L29.8158 11.9086L29.7859 11.9373L29.6962 11.966L29.6363 11.9947L29.6064 12.0234H29.5765L29.5465 12.0522H29.5166L29.4867 12.0809L29.4568 12.1096H29.4269V12.1383L29.3969 12.167H29.2174V12.1958H29.0678H29.0379L28.978 12.2245H28.9481L28.9182 12.2532H28.8883L28.8284 12.3106H28.6489V12.3394H28.619V12.3681L28.5591 12.4255V12.4829L28.4694 12.5691V12.5978L28.4394 12.6265H28.4095L28.3497 12.684V12.7127H28.3197V12.7414L28.2898 12.7701H28.2599L28.2001 12.8276H27.7512L27.7213 12.7988H27.6914L27.6615 12.7701H27.6016V12.7414H27.5717L27.5418 12.7127L27.4819 12.7701V12.7988H27.452L27.4221 12.8276H27.3922L27.3622 12.8563H27.3323L27.3024 12.885L27.2725 12.9137H27.2426L27.1827 12.9712L27.1528 12.9999H27.1229L27.093 13.0286L27.063 13.0573H27.0331L27.0032 13.086L26.9733 13.1147H26.9433L26.9134 13.1435L26.8835 13.1722L26.8237 13.2009L26.7638 13.2296L26.704 13.2583H26.674L26.6441 13.2871H26.6142L26.5843 13.3158H26.5544L26.5244 13.3445H26.4945L26.4646 13.3732H26.4347L26.3748 13.4019H26.3449L26.315 13.4307H26.2851L26.2551 13.4594H26.2252L26.1953 13.4881H26.1654L26.1355 13.5168H26.1055L26.0457 13.5455H26.0158L25.9858 13.5742H25.9559L25.926 13.603H25.8961L25.8662 13.6317H25.8362L25.8063 13.6604H25.7764L25.7465 13.6891L25.6866 13.7178H25.6567L25.6268 13.7466L25.5969 13.7753H25.5669L25.537 13.804H25.5071L25.4772 13.8327H25.4472L25.3575 13.8614H25.3276L25.2677 13.8901L25.1779 13.9189H25.148L25.0882 13.9476L24.9984 13.9763H24.9685L24.9386 14.005H24.9087L24.8488 14.0337H24.8189V14.0625H24.789V14.1486H24.759V14.1773L24.6693 14.2635L24.6394 14.2922H24.6094L24.5795 14.3209L24.5496 14.3496L24.5197 14.3784H24.4897V14.4358L24.3701 14.5507V14.5794L24.3102 14.6368L24.2803 14.6655H24.2504L24.2204 14.6943L24.1905 14.723H24.1606L24.1307 14.7517L24.0708 14.7804L23.9811 14.8091L23.8913 14.8379L23.8015 14.8666H23.7716L23.7118 14.8953H23.6819L23.5322 14.924H23.5023H22.844L22.8141 14.8953H22.7543V14.8666H22.6944V14.8379H22.6346L22.6047 14.8091H22.5747V14.7804H22.5448L22.3054 14.5507H22.2755V14.522H22.2456V14.4932L22.2157 14.4645V14.4358L22.1858 14.4071V14.3784L22.0661 14.2635V14.2348H22.0361V14.206L22.0062 14.1773V13.8901H22.0661V13.7753L22.0361 13.7466V13.6891L22.0062 13.6604V13.5742L21.9763 13.5455V13.3732L21.9464 13.3445V12.885L21.9763 12.8563V12.7988V12.7414V12.5691H22.0062V12.3968H22.0361V12.2819L22.0661 12.2532V12.1958L22.096 12.167V12.0809H22.1259V11.9947H22.1558V11.9373H22.1858V11.7937H22.2157V11.7363V11.5927V11.3629L22.1858 11.3342V11.2768V11.2193V11.1906V11.1332V11.1045V11.047V10.9896V10.9322V10.9034V10.846V10.8173V10.7598V10.7311V10.6737V10.645V10.5875V10.5588V10.5014V10.4727V10.4152V10.3865L22.2157 10.3578V10.2429V10.0993V9.92701V9.78341V9.63982V9.52495H22.1858L22.1259 9.49623L22.096 9.46751V9.43879L22.0661 9.41008V9.38136H22.0361L21.9763 9.35264L21.9464 9.32392V9.26648L21.9165 9.23776V9.20905H21.8865V9.18033L21.8267 9.12289V9.09417L21.7968 9.06545V9.03674L21.7669 9.00802V8.95058L21.7369 8.92186V8.83571H21.6771V8.80699L21.6472 8.77827V8.6634L21.6172 8.63468V8.60596H21.5873V8.5198L21.5275 8.49109V8.46237L21.4976 8.43365V8.34749L21.4377 8.31878V8.26134H21.4078L21.3779 8.23262V8.14647L21.3479 8.11775V8.06031L21.318 8.03159V7.97415H21.2881V7.94544L21.2283 7.91672V7.85928L21.1086 7.74441L21.0487 7.71569V7.68697L21.0188 7.65825H20.9889L20.959 7.62953H20.929V7.60082L20.8991 7.5721H20.8692L20.8094 7.51466H20.7794L20.7196 7.45722L20.6597 7.42851L20.6298 7.39979H20.4503V7.37107H20.2109L20.181 7.34235H19.9416L19.9117 7.31363H19.8219V7.28491H19.7621L19.7322 7.2562H19.7022H19.5826V6.88286H19.6424V6.85414H19.7022V6.82542H19.7322V6.7967H19.792V6.76798H19.8219V6.68183H19.8519V6.65311H19.8818V6.62439H19.9117V6.59567L19.9416 6.56695H20.0015V6.53824H20.0613V6.4808H20.0912V6.45208H20.1511L20.181 6.42336V6.39464L20.2109 6.36592L20.2708 6.33721L20.3306 6.30849V6.25105H20.3605L20.3904 6.22233L20.4503 6.19361V6.1649L20.4802 6.13618V6.10746L20.5101 6.07874L20.5401 6.05002V6.0213L20.57 5.99259V5.96387L20.5999 5.93515V5.87771L20.6298 5.84899V5.82028L20.6897 5.76284L20.7196 5.73412L20.7495 5.7054V5.67668L20.7794 5.64796V5.61925L20.8393 5.59053V5.50437L20.8692 5.47565V5.24591H20.8991V5.13103L20.929 5.10232V4.93L20.959 4.90129L20.9889 4.87257V4.84385L21.0188 4.81513V4.78641L21.0487 4.75769V4.67154L21.0786 4.64282V4.52795L21.1086 4.49923L21.1385 4.47051V4.41307L21.1684 4.38436L21.1983 4.35564V4.26948L21.2283 4.24076V4.18333L21.2881 4.15461V4.09717L21.318 4.06845V4.03973L21.3479 4.01102V3.95358L21.3779 3.92486V3.86742L21.4377 3.83871V3.80999L21.4976 3.78127L21.5275 3.75255V3.6664L21.5873 3.63768V3.60896L21.6172 3.58024V3.5228L21.6472 3.49408L21.6771 3.46537V3.43665L21.7369 3.40793V3.37921L21.7669 3.35049L21.7968 3.32177L21.8267 3.29306L21.8566 3.26434V3.23562H21.8865V3.2069L21.9464 3.17818V3.12075L21.9763 3.09203V3.06331L22.0361 3.03459L22.096 2.97715V2.94844L22.1259 2.91972L22.1558 2.891L22.1858 2.86228L22.2157 2.83356L22.2456 2.80484H22.2755V2.77613L22.3653 2.74741L22.3952 2.71869V2.68997L22.4251 2.66125H22.4551L22.485 2.63253L22.5448 2.60381L22.5747 2.5751L22.6346 2.54638L22.6645 2.51766H22.6944V2.48894L22.7543 2.46022L22.844 2.4315L22.9039 2.40279V2.37407H22.9338L22.9637 2.34535L23.0236 2.31663L23.1133 2.28791L23.1732 2.25919V2.23048L23.2629 2.20176L23.2929 2.17304L23.3228 2.14432L23.3826 2.1156L23.4126 2.08688H23.4425V2.05817L23.5023 2.02945L23.5921 2.00073L23.6819 1.97201V1.94329L23.7118 1.91457L23.7716 1.88585L23.8913 1.85714L23.9512 1.82842V1.7997H23.9811L24.0409 1.77098L24.1905 1.74226L24.3401 1.71354L24.4897 1.68483L24.5197 1.65611H24.789H24.9386V1.62739H25.8961L26.1953 1.65611H26.2252H26.4047V1.71354H26.5244L26.5843 1.74226L27.2126 1.77098L27.3622 1.7997L27.4221 1.85714H27.5119L27.6615 1.88585L27.7213 1.91457L27.9008 1.94329V2.00073H28.0205L28.1103 2.02945L28.23 2.05817L28.3497 2.08688V2.14432H28.4394L28.5591 2.17304L28.6788 2.20176L28.8284 2.23048V2.28791H28.9481L29.0678 2.31663L29.1576 2.34535L29.2473 2.37407V2.40279L29.3072 2.46022H29.367L29.4568 2.48894L29.5465 2.51766V2.54638L29.5765 2.5751L29.6064 2.60381V2.63253H29.6662L29.7261 2.66125V2.68997L29.756 2.71869V2.74741H29.8158L29.8757 2.80484V2.83356L29.9056 2.86228V2.891H29.9655L30.0253 2.94844V2.97715L30.0552 3.00587V3.03459L30.1151 3.06331V3.09203H30.145V3.12075L30.1749 3.14946V3.17818L30.2048 3.2069L30.2647 3.23562V3.26434L30.2946 3.29306L30.3245 3.32177V3.35049L30.3544 3.37921H30.3844V3.40793L30.4442 3.46537L30.4741 3.49408V3.5228L30.504 3.55152V3.58024L30.5639 3.60896V3.63768H30.5938V3.6664L30.6237 3.69511V3.72383L30.6537 3.75255V3.78127L30.7135 3.80999V3.86742H30.7434V3.89614L30.7733 3.92486V4.03973L30.8033 4.06845V4.09717H30.8631V4.18333L30.893 4.21204V4.24076L30.923 4.26948V4.32692L30.9529 4.35564V4.38436H30.9828V4.41307L31.0127 4.44179V4.49923L31.0426 4.52795V4.55667L31.0726 4.58538V4.64282L31.1025 4.67154V4.72898L31.1324 4.75769L31.1623 4.78641L31.1923 4.81513V4.84385L31.2222 4.87257V4.95872L31.2521 4.98744V5.04488L31.3119 5.0736V5.15975H31.3419V5.18847L31.3718 5.21719V5.44694L31.4017 5.47565V5.53309H31.4316V5.56181L31.4615 5.59053V5.73412H31.4915V5.79156L31.5214 5.82028V5.90643L31.5513 5.93515V6.05002H31.6112V6.1649L31.6411 6.19361V6.30849L31.671 6.33721V6.42336L31.7009 6.45208V6.76798L31.7308 6.7967L31.7608 6.82542V6.91157H31.8505L31.9104 6.94029L31.9403 6.96901V7.02645L32.0001 7.08388V7.1126H32.06V7.19876H32.0899ZM28.9481 11.0757H28.8883V11.1619L28.9182 11.1906V11.6501H28.8883V11.8224H28.9481H28.978V11.7937H29.0379V11.765L29.0977 11.7075H29.1576V11.6788H29.2174V11.6501H29.2773V11.6214H29.3371V11.5927H29.367V11.564H29.4269V11.5352H29.4867V11.5065L29.5465 11.4491V11.4204H29.5765V11.3916H29.6064V11.3629H29.6363V11.3342L29.6662 11.3055V11.2768H29.6962V11.2481L29.7261 11.2193V11.1045H29.6962L29.6662 11.0757H29.6064V11.047H29.4867V11.0183L29.1276 11.047L28.9481 11.0757ZM28.2898 10.3291V9.84085H23.233V9.89829H22.6645V9.95572V10.0132V10.0419V10.0993V10.128V10.1855V10.2142V10.2716V10.3003V10.3578V10.3865H22.9338V10.4152H22.9937H23.1133V10.4439H23.1433V10.4727H23.1732V10.5014H23.2031V10.5588H23.233V10.645H23.2629V10.7311H23.2929V10.8747L23.3228 10.9034V11.2481H23.2929V11.6788L23.2629 11.7075V11.8224L23.233 11.8511V11.8799L23.2031 11.9086V11.9373L23.1433 11.9947H23.0834L23.0236 12.0234L22.6645 12.0522V12.0809H22.5747V12.2532L22.5448 12.2819V12.3681H22.5149V12.5117H22.4551V12.5404L22.3952 12.5978V12.6553H22.3653V12.684L22.3354 12.7127V12.7414L22.3054 12.7701V12.885L22.2755 12.9137V13.2009H22.3054V13.2296H22.4251V13.2009H23.1732L23.2031 13.2296H23.4126L23.4425 13.2583H23.5622L23.5921 13.2871H23.6819L23.7118 13.3158H23.8614L23.8913 13.3445H23.9811L24.011 13.3732H24.0409V13.3445H24.3401V13.3732H24.3701V13.4019H24.4598V13.3732H24.6394V13.3445H24.789V13.3158H24.8787V13.2871H24.9386V13.2583H24.9984V13.2296H25.0882V13.2009H25.148V13.1722H25.2079V13.1435H25.2677V13.1147H25.3575V13.086H25.4173V13.0573H25.4772V13.0286H25.5969V12.9999H25.6567V12.9712H25.7165V12.9424H25.8063V12.9137H25.8662V12.885H25.926V12.8563H25.9559V12.8276H26.0457V12.7988H26.1055V12.7701L26.1355 12.7414H26.1953V12.684H26.2551V12.6553H26.315V12.6265H26.3449V12.5978H26.4047V12.5691H26.4347V12.5404H26.4646V12.5117H26.5244V12.4829H26.5544V12.4542H26.6142V12.4255H26.674V12.3968H26.704V12.3681H26.7638V12.3394H26.7937V12.3106H26.8536V12.2819H26.8835V12.2532H26.9134V12.2245H26.9433V12.1958H27.0032V12.167H27.0331V12.1383H27.093V12.1096L27.1229 12.0809H27.1528V12.0522H27.1827V12.0234H27.2426V11.9947H27.2725V11.966H27.3024V11.9373H27.3323V11.9086H27.3622V11.8799H27.3922V11.8511L27.4221 11.8224V11.7937H27.452V11.7363H27.4819V11.7075L27.5119 11.6788V11.6214L27.5418 11.5927V11.5352L27.5717 11.5065V11.3916H27.6016V11.3342H27.6315V11.3055L27.6615 11.2768V11.2481H27.6914V11.2193H27.7213V11.1906H27.7512V11.1619L27.7812 11.1332H27.841V11.0757H27.9008V11.047H27.9308V11.0183L24.8189 11.047V11.1332H24.4598L24.4299 11.1045H24.4H24.2504V10.6737V10.6162V10.4439H24.4V10.4152H28.1402V10.3578H28.3197L28.2898 10.3291ZM28.3197 11.2768H28.2898L28.2599 11.3055L28.23 11.3342L28.2001 11.3629H28.1701L28.1402 11.3916L28.1103 11.4204L28.0804 11.4491H28.0505V11.4778L27.9308 11.5927V11.6214L27.9008 11.6501V11.9086L27.8709 11.9373V12.167H27.9008V12.3394H27.9308V12.3681H28.0205V12.3968H28.0505L28.0804 12.3681H28.1103V12.3394L28.1402 12.3106H28.1701V12.2819L28.23 12.2245V12.1958H28.2599V12.1383L28.2898 12.1096V12.0809H28.3197V12.0522L28.3497 12.0234V11.9947H28.3796V11.9373L28.4095 11.9086V11.8799V11.8224V11.7075V11.6214V11.5065V11.3916V11.2768V11.2481L28.3197 11.2768ZM14.0171 2.91972H14.0769H14.1368L14.1966 2.94844L14.2565 2.97715L14.3163 3.03459V3.06331H14.3462V3.09203L14.3761 3.12075V3.23562L14.436 3.29306L14.4659 3.32177L14.4958 3.35049V3.37921L14.5258 3.40793L14.5856 3.46537V3.49408H14.6155L14.6454 3.5228L14.6754 3.55152L14.7053 3.58024V3.60896L14.7352 3.63768L14.7651 3.6664V3.69511L14.7951 3.72383L14.825 3.75255L14.8549 3.78127V3.80999L14.8848 3.83871L14.9447 3.89614V3.92486H14.9746L15.0045 3.95358V3.9823L15.0344 4.01102V4.03973L15.0643 4.06845V4.09717L15.1242 4.15461L15.1541 4.18333L15.184 4.21204L15.214 4.24076L15.2439 4.26948V4.2982L15.2738 4.32692L15.3037 4.35564L15.3336 4.38436L15.3636 4.41307V4.44179L15.3935 4.47051L15.4234 4.49923V4.55667L15.4533 4.58538V4.6141L15.4833 4.64282L15.5132 4.67154V4.70026L15.5431 4.72898V4.75769L15.573 4.78641L15.6029 4.81513V4.84385L15.6329 4.87257V4.90129L15.6628 4.93V4.95872L15.6927 4.98744V5.01616L15.7226 5.04488L15.7526 5.0736V5.10232L15.7825 5.13103V5.15975L15.8124 5.18847V5.21719H15.8423V5.24591L15.8722 5.27463L15.9022 5.30334V5.33206L15.9321 5.36078V5.3895L15.962 5.41822V5.44694L15.9919 5.47565V5.50437L16.0218 5.53309V5.61925L16.0518 5.64796L16.0817 5.67668V5.7054L16.1116 5.73412V5.76284L16.1415 5.79156V5.84899L16.1715 5.87771V5.93515L16.2014 5.96387V6.13618L16.2313 6.1649L16.2612 6.19361L16.3211 6.22233H16.3809L16.4108 6.25105L16.4707 6.27977L16.5006 6.30849L16.5305 6.33721H16.5604L16.6203 6.36592L16.6801 6.39464L16.74 6.45208L16.7699 6.4808L16.7998 6.50952L16.8297 6.53824L16.8597 6.56695V6.59567L16.8896 6.62439L16.9195 6.65311V6.71055L16.9494 6.73926V6.7967L16.9793 6.82542V7.05517L17.0093 7.08388V7.17004L17.0392 7.19876V7.22748L17.0691 7.2562V7.37107H17.099V7.51466L17.129 7.54338V7.74441L17.1589 7.77313V7.85928L17.1888 7.888V7.94544L17.2187 7.97415V8.11775L17.2486 8.14647V8.23262H17.2786V8.37621L17.3085 8.40493V8.5198L17.3384 8.54852V8.57724L17.3683 8.60596V8.77827L17.3983 8.80699V8.92186L17.4282 8.95058V9.09417L17.4581 9.12289V9.52495H17.488V9.55367L17.5179 9.58239V9.78341L17.488 9.81213V9.84085L17.4581 9.86957V10.0132L17.4282 10.0419V10.0993H17.4581L17.5778 10.2142V10.2429L17.6077 10.2716V10.4439L17.5778 10.4727V10.5014L17.5179 10.5588L17.5479 10.5875V10.9609L17.5179 10.9896V11.1332L17.5479 11.1619V11.3916L17.5179 11.4204V11.4491L17.488 11.4778V11.5065L17.4581 11.5352L17.4282 11.564L17.3983 11.5927H17.3384L17.3085 11.6214H17.2486H16.8896L16.8597 11.6501H16.7998L16.6502 11.6788H16.6203L16.5604 11.7075V11.765L16.5305 11.7937V11.8224L16.5006 11.8511V12.0809L16.4707 12.1096V12.1383V12.1958V12.2245V12.2819V12.3681V12.4255V12.5117V12.5978V12.684V12.7701V12.8276V12.9137V12.9999V13.086V13.1722V13.2009L16.5305 13.2296H16.5904L16.6502 13.2583H16.7101H16.7699L16.8297 13.2871H16.8597L16.9195 13.3158H16.9793L17.0392 13.3445L17.099 13.3732L17.129 13.4019H17.1589L17.1888 13.4307L17.2187 13.4594V13.4881L17.2786 13.5455L17.3085 13.5742V13.9763H17.2786V14.0337V14.0912V14.1486V14.206V14.2922V14.3784V14.4358V14.522V14.6081V14.6943V14.7804V14.8379V14.924V15.0102V15.0676L17.3384 15.125H17.3683L17.4282 15.1538L17.4581 15.1825V15.2112L17.488 15.2399L17.5179 15.2686V15.2973L17.5778 15.3548L17.6077 15.3835V15.4122L17.6376 15.4409V15.4697L17.6676 15.4984V15.5271L17.6975 15.5558H17.7274L17.7573 15.5845V15.6132L17.7872 15.642V15.6707L17.8172 15.6994V15.7281L17.877 15.7856L17.9069 15.8143V15.843L17.9368 15.8717V15.9004L17.9668 15.9292L17.9967 15.9579V15.9866H18.0266V16.044H18.2061V16.3025L18.2361 16.3312V16.3599L18.266 16.3886V16.5035V16.561V16.6471V16.7045V16.7907V16.9056V17.0205V17.1353V17.2215V17.3364V17.4512V17.5661V17.6523V17.7671V17.882V17.9969V18.083V18.1979V18.3128V18.6287L18.2361 18.6574V18.6861L18.2061 18.7148V18.7436L18.1463 18.801V18.8297V18.8871V18.9446V18.9733H17.9668V19.002V19.0595V19.1169V19.1743V19.2318V19.2892V19.3466V19.4041V19.4328V19.4902V19.5477V19.6051V19.6625V19.72V19.7774V19.8349V19.8923L17.9368 19.921V19.9497L17.9069 19.9784V20.0072L17.8471 20.0646L17.7872 20.0933L17.7274 20.122H17.6676H17.6077L17.5479 20.0933H16.4707H14.825L14.3761 20.122L14.047 20.1508H13.8675L13.8375 20.1795V20.2082L13.299 20.2369L12.5808 20.2656L12.3714 20.2943V20.2369H12.3115H12.0722V20.1795L12.0422 20.1508V20.0359L12.0123 20.0072V19.8349L11.9824 19.8061V19.6913L11.9525 19.6625V19.4902H11.9225V19.2605L11.8926 19.2318V19.203V19.1456V19.0882V19.002V18.9446V18.8871V18.8297V18.7436V18.6861V18.6287V18.5712V18.4851V18.4277V18.3702V18.3128V18.2266V18.1692V18.1117V18.0543V17.9682V17.9107V17.8533H11.9225V17.5374L11.9525 17.5087V17.1353L11.9824 17.1066V16.8481H12.0123V16.5322L12.0422 16.5035V16.1015L12.0722 16.0727V15.5558H12.1021V14.8379L12.0722 14.8091V14.6943H12.0422V14.5507L12.0123 14.522V14.3784H11.9824V14.2348L11.9525 14.206V13.9763L11.9225 13.9476V13.7466H11.8926V13.0573L11.9225 13.0286V12.9999V12.9424V12.9137V12.8563V12.8276V12.7701V12.7414V12.684V12.6553V12.5978V12.5691V12.5117V12.4542V12.3968V12.3681V12.3106V12.2819V12.2245V12.167L11.9525 12.1383V12.0522V11.9947V11.9373V11.8799V11.7937V11.7363H11.9225V11.0757L11.8926 11.047V10.5588L11.8627 10.5301V10.4727V10.4152V10.3865V10.3291V10.3003V10.2429V10.2142V10.1568V10.0993V10.0419V9.92701V9.86957V9.78341V9.72598V9.69726H11.8328V9.20905H11.8029V8.57724H11.7729V8.00287L11.743 7.97415V7.31363L11.7131 7.28491V7.02645L11.6832 6.99773V6.73926L11.6533 6.71055V6.56695L11.6233 6.53824V6.45208L11.5934 6.42336V6.27977L11.5635 6.25105V6.07874L11.5336 6.05002V5.76284H11.5036V5.56181L11.4737 5.53309V5.44694H11.4438V5.33206H11.4139V5.18847L11.384 5.15975V5.0736L11.354 5.04488V4.95872L11.3241 4.93V4.87257L11.2942 4.84385V4.78641L11.2643 4.75769V4.72898L11.2044 4.67154V4.64282L11.1745 4.6141V4.41307H11.1446V4.12589H11.2343V4.09717H11.354V4.06845H11.4139V4.03973H11.4438V4.01102H11.5336V3.95358L11.5635 3.92486V3.63768H11.5934V3.58024L11.6233 3.55152V3.5228V3.46537V3.40793V3.35049V3.29306V3.23562V3.2069V3.14946V3.09203V3.03459V2.97715V2.94844V2.891V2.83356V2.77613V2.71869L11.5635 2.68997L11.5336 2.66125V2.63253L11.5036 2.60381V2.5751L11.4737 2.54638V2.48894L11.4438 2.46022V2.4315L11.4139 2.40279V2.20176L11.384 2.17304V2.14432L11.354 2.1156L11.3241 2.08688V2.00073L11.2643 1.97201L11.2044 1.94329L11.1745 1.91457V1.85714L11.0548 1.82842L10.965 1.7997L10.9052 1.77098L10.7556 1.74226V1.71354H10.7257V1.77098H10.1272L9.97762 1.74226V1.71354H8.302L8.33192 1.74226L8.36184 1.77098L8.42168 1.7997L8.48153 1.82842L8.51145 1.85714V1.88585L8.54137 1.91457L8.57129 1.94329L8.63114 1.97201L8.69098 2.00073L8.7209 2.02945L8.75083 2.05817H8.78075L8.81067 2.08688L8.87051 2.1156L8.90044 2.14432V2.17304L8.93036 2.20176L8.9902 2.23048H9.02012L9.07997 2.25919V2.28791L9.13981 2.34535H9.16973L9.22958 2.37407L9.2595 2.40279L9.28942 2.4315V2.48894L9.37919 2.51766L9.40911 2.54638L9.43903 2.5751V2.60381L9.49887 2.63253L9.55872 2.68997V2.71869L9.58864 2.74741L9.61856 2.77613H9.64848L9.82801 2.94844V2.97715L9.85794 3.00587V3.03459L9.88786 3.06331L9.91778 3.09203L9.97762 3.14946V3.17818L10.0375 3.23562L10.0674 3.26434L10.0973 3.29306V3.32177L10.1272 3.35049L10.1572 3.37921V3.43665L10.1871 3.46537V3.49408L10.217 3.5228L10.2768 3.58024V3.63768H10.3068L10.3367 3.6664L10.3965 3.69511L10.4265 3.72383V3.78127L10.4564 3.80999V3.83871L10.4863 3.86742L10.5162 3.89614L10.5461 3.92486L10.5761 3.95358L10.6359 3.9823V4.01102L10.6658 4.03973L10.6957 4.06845H10.7257V4.09717L10.7556 4.12589V4.15461H10.7855V4.26948L10.8154 4.2982V4.35564L10.8454 4.38436V4.41307L10.8753 4.44179V4.49923L10.9052 4.52795V4.55667L10.9351 4.58538L10.965 4.6141V4.70026L10.995 4.72898V4.81513L11.0249 4.84385V4.87257L11.0548 4.90129V4.93L11.0847 4.95872V5.04488L11.1147 5.0736V5.18847L11.1446 5.21719V5.33206L11.1745 5.36078V5.41822L11.2044 5.44694L11.2343 5.47565V5.53309L11.2643 5.56181V5.73412L11.2942 5.76284V6.05002L11.3241 6.07874V6.1649L11.354 6.19361V7.1126L11.384 7.14132V7.28491V7.34235V7.39979V7.45722V7.51466V7.5721V7.60082V7.65825V7.71569V7.77313V7.83056V7.888V7.94544V8.00287V8.03159V8.08903V8.14647V8.37621L11.4139 8.40493V8.77827L11.4438 8.80699V9.20905L11.4737 9.23776V9.32392H11.5036V10.1855L11.5336 10.2142V10.6737L11.5635 10.7024V10.7886V10.846V10.9609V11.047V11.1619V11.2768V11.3916V11.4778V11.5927V11.7075V11.8224V11.9086V12.0234V12.1383V12.2532V12.3394V12.4542V12.5691V12.684V12.7701V12.7988V12.8563V12.9137L11.5934 12.9424V13.5742L11.6233 13.603V13.6317L11.6533 13.6604V13.7178L11.6832 13.7466V14.0912L11.7131 14.1199V14.2922L11.743 14.3209V14.4932H11.7729V14.5507V14.6368V14.723V14.8091V14.8666V14.9527V15.0389V15.125V15.2112V15.2973V15.3548V15.4409V15.5271V15.6132V15.6707V15.7281V15.7856L11.743 15.8143V15.9004L11.7131 15.9292V16.5322L11.6832 16.561V16.7045L11.6533 16.7333V17.164L11.6233 17.1928V17.882H11.5934V17.9394L11.5635 17.9682V18.0543V18.1117V18.1692V18.2266V18.2841V18.3128V18.3702V18.4277V18.4851V18.5425V18.6V18.6574V18.7148V18.7436V18.801V18.8584V18.9159V18.9733V19.0307V19.0882V19.1456V19.1743V19.2318V19.4328L11.5934 19.4615V19.4902L11.6233 19.519V19.5477V19.6051V19.6338V19.6913V19.7487V19.8061V19.8636V19.921V19.9784V20.0359V20.0646V20.122V20.1795V20.2369V20.2943V20.3518H10.8154L9.6784 20.3805L8.9902 20.3518L8.96028 20.3231L8.93036 20.2943H8.7209L8.27208 20.2656L7.82325 20.2369L7.37442 20.2082L7.3445 20.1795V20.1508H6.83582L6.68621 20.122L6.32715 20.0933L5.90825 20.0646L5.87832 20.0359V20.0072H5.60903L4.74129 19.9784L4.47199 19.9497V19.921L4.23262 19.8923L4.2027 19.8636H3.96332L3.78379 19.8349L3.48457 19.8061L3.45465 19.7774V19.72H3.36488V19.6913L3.33496 19.6625V19.519L3.30504 19.4902L3.27512 19.4615V19.4328H3.2452V19.3466L3.21527 19.3179V19.2892V19.2318V19.1456V19.002V18.8871V18.7148V18.5712V18.3989V18.2266V18.083V17.9107V17.7671V17.6235V17.4512V17.2789V17.164V16.9917V16.8481V16.6758V16.5322V16.4461V16.4174H3.2452V16.0153L3.21527 15.9866V15.0389L3.18535 15.0102V14.4932L3.15543 14.4645V14.2348L3.12551 14.206V14.1773L3.09559 14.1486V13.8901L3.06566 13.8614V13.6604L3.03574 13.6317V13.4019H3.00582V13.2296L2.9759 13.2009V13.1722L2.94598 13.1435V12.9424L2.91605 12.9137V12.7414L2.88613 12.7127V12.4829L2.85621 12.4542V12.3968L2.82629 12.3681V12.3394L2.79637 12.3106V12.167L2.76645 12.1383V11.9947L2.73652 11.966V11.765L2.7066 11.7363V11.6788L2.67668 11.6501V11.6214L2.64676 11.5927V11.4491L2.61684 11.4204V11.2481H2.58691V11.0183L2.55699 10.9896V10.8173H2.52707V10.7886L2.49715 10.7598V10.6162L2.46723 10.5875V10.3578L2.4373 10.3291V9.92701L2.40738 9.89829V9.58239L2.37746 9.55367V9.52495H2.34754V9.09417H2.31762V8.37621L2.2877 8.34749V7.888V7.83056V7.80184H2.25777V7.65825V7.60082V7.54338V7.48594V7.42851V7.37107V7.34235V7.28491V7.22748V7.17004V7.1126V7.05517V6.99773V6.94029V6.91157V6.85414V6.7967V6.73926V6.68183V6.62439V6.56695V6.50952V6.22233L2.2877 6.19361V5.93515L2.31762 5.90643V5.79156L2.34754 5.76284V5.64796H2.37746V5.61925L2.40738 5.59053V5.56181L2.4373 5.53309V5.47565L2.46723 5.44694V5.3895L2.49715 5.36078V5.30334L2.52707 5.27463L2.55699 5.24591V5.21719H2.58691V5.10232L2.61684 5.0736V4.98744L2.64676 4.95872V4.90129L2.67668 4.87257V4.84385L2.7066 4.81513V4.78641H2.73652V4.70026L2.76645 4.67154V4.6141L2.79637 4.58538V4.52795L2.82629 4.49923V4.47051L2.85621 4.44179V4.41307L2.88613 4.38436V4.35564L2.91605 4.32692L2.94598 4.2982V4.24076L2.9759 4.21204V4.18333L3.00582 4.15461L3.03574 4.12589V4.09717L3.06566 4.06845V4.03973L3.09559 4.01102V3.9823L3.12551 3.95358V3.92486H3.15543V3.89614L3.21527 3.83871L3.2452 3.80999V3.78127L3.27512 3.75255L3.30504 3.72383L3.39481 3.63768V3.60896L3.42473 3.58024L3.45465 3.55152L3.48457 3.5228L3.54441 3.49408H3.57434L3.6641 3.40793L3.72395 3.37921L3.78379 3.35049L3.81371 3.32177L3.84363 3.29306L3.87356 3.26434L3.90348 3.23562L3.96332 3.2069L3.99324 3.17818L4.02317 3.14946L4.05309 3.12075L4.11293 3.09203H4.14285V3.06331H4.2027L4.26254 3.03459L4.29246 3.00587L4.35231 2.97715L4.41215 2.91972H4.44207L4.50192 2.891L4.56176 2.83356L4.59168 2.80484L4.65153 2.77613H4.68145H4.74129L4.80113 2.74741L4.86098 2.71869L4.8909 2.68997H4.95074L5.01059 2.66125L5.07043 2.63253H5.13028H5.1602L5.19012 2.60381H5.24996H5.33973L5.39957 2.5751H5.45942L5.54918 2.54638L5.60903 2.51766L5.66887 2.48894H5.72871H5.93817L5.96809 2.46022H6.02793H6.08778L6.14762 2.4315L6.20746 2.40279L6.23739 2.37407L6.29723 2.34535H6.35707L6.387 2.31663V2.20176L6.41692 2.17304V2.14432L6.44684 2.1156V1.77098L6.47676 1.74226V1.36892L6.50668 1.34021V1.25405L6.5366 1.22533V1.19661L6.62637 1.11046L6.68621 1.08174L6.74606 1.05302H6.8059H6.86575L6.92559 1.08174L6.98543 1.11046L7.01536 1.13918H7.04528H7.10512L7.16496 1.16789L7.22481 1.19661L7.28465 1.25405H7.31457L10.4265 1.28277V0.794556L10.9052 0.823274V1.19661L10.965 1.22533V1.25405L11.2044 1.28277V1.31149L11.354 1.34021L11.4139 1.36892L11.5036 1.39764L11.6233 1.42636V1.4838H11.6533V1.51252L11.7131 1.54123L11.7729 1.56995V1.65611L11.8328 1.71354L11.8627 1.74226L11.8926 1.77098L11.9225 1.7997V1.88585L11.9525 1.91457V1.94329L11.9824 1.97201L12.0123 2.00073L12.0722 2.05817V2.1156L12.1021 2.14432L12.132 2.17304V2.20176L12.2218 2.28791V2.34535L12.2517 2.37407V2.40279L12.2816 2.4315V2.46022L12.3115 2.48894H12.3714V2.51766L12.4312 2.5751V2.60381L12.4611 2.63253L12.4911 2.66125L12.521 2.68997V2.71869L12.5509 2.74741L12.5808 2.77613L12.6407 2.80484L12.7005 2.83356V2.86228H12.7903L12.8501 2.83356H12.91H12.9698H13.0297H13.0895H13.1493L13.2092 2.86228H13.269H13.4186H13.4785L13.5383 2.891H13.6281H13.6879L13.7179 2.91972H13.8375H13.8974H13.9572H14.0171ZM16.1116 6.82542L16.1715 6.85414L16.1415 6.82542H16.1116ZM22.874 10.7886V10.7598H22.844V10.7311H22.8141H22.5747L22.5448 10.7598V11.3055H22.5747V11.6214H22.6047V11.6501L22.6346 11.6788H22.6645L22.6944 11.7075H22.7244H22.8141V11.6788H22.874V11.6501H22.9039V11.5927H22.9338V11.5352H22.9637V11.4204L22.9937 11.3916V11.0183H22.9637V10.9609L22.9338 10.9322V10.846H22.9039V10.8173L22.874 10.7886ZM22.6944 13.9189H22.5149V13.9763L22.5448 14.005H22.5747V14.0337H22.6047V14.0625H22.6346V14.0912H22.6645V14.1199H22.6944V14.1486L22.7543 14.206H22.7842V14.2348H22.8141V14.2635H22.9039V14.2922H22.9637L22.9937 14.3209H23.0834L23.1133 14.3496H23.233V14.3209H23.4126V14.2922H23.4724V14.2635H23.5322V14.2348H23.5921V14.206H23.622V14.1773H23.6519V14.1486H23.6819V14.1199H23.7118V14.005H23.4724L23.4425 13.9763H23.1732H23.1133L23.0834 13.9476H22.7543L22.6944 13.9189ZM5.75864 3.09203L5.66887 3.12075H5.75864V3.09203ZM4.71137 3.72383L4.68145 3.69511V3.72383L4.47199 3.75255L4.38223 3.78127H4.35231L4.29246 3.80999H4.26254L4.2027 3.83871L4.14285 3.86742H4.11293L4.05309 3.89614L3.99324 3.92486H3.96332L3.9334 3.95358L3.90348 3.9823H3.87356L3.84363 4.01102H3.81371L3.75387 4.06845V4.09717H3.72395L3.6641 4.15461V4.18333L3.63418 4.21204H3.54441V4.24076L3.48457 4.2982V4.32692L3.45465 4.35564V4.38436L3.39481 4.44179V4.47051L3.36488 4.49923V4.52795L3.30504 4.58538V4.64282L3.2452 4.70026V4.75769H3.21527V4.78641L3.18535 4.81513V4.84385L3.12551 4.90129V4.95872H3.09559V4.98744L3.06566 5.01616V5.04488L3.03574 5.0736V5.13103L3.00582 5.15975V5.18847L2.9759 5.21719V5.27463L2.94598 5.30334V5.41822H2.91605V5.47565L2.88613 5.50437V5.53309L2.85621 5.56181V5.64796L2.82629 5.67668V5.76284L2.79637 5.79156V6.10746L2.76645 6.13618V6.27977L2.73652 6.30849V6.39464H2.7066V6.99773L2.67668 7.02645V7.51466L2.7066 7.54338V8.14647L2.73652 8.17518V8.63468L2.76645 8.6634V8.92186L2.79637 8.95058V9.15161H2.82629V9.38136L2.85621 9.41008V9.49623L2.88613 9.52495V9.66854L2.91605 9.69726V9.78341L2.94598 9.81213V9.92701L2.9759 9.95572V10.0132L3.00582 10.0419V10.1855L3.03574 10.2142V10.3003L3.06566 10.3291V10.4152L3.09559 10.4439V10.5588L3.12551 10.5875V10.645L3.15543 10.6737V10.7024H3.18535V10.7598L3.21527 10.7886V10.9034L3.2452 10.9322V10.9609L3.30504 11.0183V11.3055H3.60426V11.3629L3.72395 11.3342H4.2027L4.23262 11.3055V11.2481L4.26254 11.2193V11.1906L4.29246 11.1619V11.1332L4.35231 11.0757V11.047L4.38223 11.0183V10.9609L4.41215 10.9322V10.8747L4.44207 10.846V10.8173L4.50192 10.7598V10.7311L4.53184 10.7024V10.6737H4.56176V10.645L4.59168 10.6162V10.5875L4.6216 10.5588V10.5301L4.65153 10.5014V10.4727L4.68145 10.4439V10.4152L4.71137 10.3865V10.3578L4.74129 10.3291V10.2716L4.77121 10.2429H4.80113V10.1855L4.83106 10.1568V10.0706L4.86098 10.0419V10.0132L4.8909 9.98444V9.92701L4.92082 9.89829V9.84085L4.95074 9.81213V9.78341L4.98067 9.75469V9.69726L5.01059 9.66854V9.63982L5.04051 9.6111V9.55367L5.07043 9.52495L5.10035 9.49623V9.43879L5.13028 9.41008V9.38136L5.1602 9.35264V9.32392L5.19012 9.2952V9.23776L5.22004 9.20905V9.18033L5.24996 9.15161V9.12289L5.27989 9.09417V9.06545L5.30981 9.03674V8.9793L5.33973 8.95058V8.92186L5.36965 8.89314V8.83571L5.39957 8.80699V8.74955L5.42949 8.72083V8.6634L5.45942 8.63468V8.60596L5.48934 8.57724V8.5198H5.51926V8.49109L5.54918 8.46237V8.43365L5.5791 8.40493V8.37621L5.60903 8.34749V8.26134L5.63895 8.23262V8.14647L5.66887 8.11775L5.69879 8.08903V8.06031L5.72871 8.03159V7.97415L5.75864 7.94544V7.888L5.78856 7.85928V7.80184L5.81848 7.77313V7.68697L5.8484 7.65825V7.5721L5.87832 7.54338V7.45722L5.90825 7.42851V7.37107H5.93817V7.22748L5.96809 7.19876V6.91157L5.99801 6.88286V6.73926L6.02793 6.71055V5.84899L6.05785 5.82028V5.67668L6.02793 5.64796V5.47565L5.99801 5.44694V5.15975H5.96809V5.0736L5.93817 5.04488V5.01616L5.90825 4.98744V4.93L5.87832 4.90129L5.8484 4.87257V4.84385L5.81848 4.81513V4.78641L5.75864 4.72898V4.70026L5.69879 4.64282V4.58538L5.66887 4.55667L5.63895 4.52795V4.49923L5.60903 4.47051L5.5791 4.44179V4.41307L5.54918 4.38436V4.35564L5.51926 4.32692V4.2982L5.45942 4.24076V4.21204L5.36965 4.12589H5.33973L5.27989 4.06845L5.24996 4.03973H5.19012L5.1602 4.01102V3.9823L5.13028 3.95358H5.10035L5.01059 3.86742H4.98067L4.92082 3.83871L4.83106 3.75255H4.74129V3.72383H4.71137ZM3.96332 12.0809H3.45465H3.39481L3.42473 12.1096V12.167L3.45465 12.1958V12.3106L3.48457 12.3394V12.5691L3.51449 12.5978V12.7127L3.54441 12.7414V12.8276H3.69402V12.7701L3.72395 12.7414V12.7127L3.75387 12.684V12.6265H3.78379V12.5404H3.81371V12.5117L3.84363 12.4829V12.3968L3.87356 12.3681L3.90348 12.3394V12.2819L3.9334 12.2532V12.1958L3.96332 12.167V12.0809ZM46.0903 4.26092V5.21006L45.3454 5.827H44.9977C44.766 5.827 44.6501 5.93773 44.6501 6.15919V7.67781L45.2212 8.19984V9.31507H45.4943V10.454H45.2212V11.6405H45.4943V12.7794H45.2212V13.9658H45.4943V15.1048H45.2212V16.1963L44.6501 17.1692V17.9759C44.6501 18.1974 44.766 18.3081 44.9977 18.3081H49.4177C49.6494 18.3081 49.7653 18.1974 49.7653 17.9759V17.1692L49.1694 16.1963V15.1048H48.921V13.9658H49.1694V12.7794H48.921V11.6405H49.1694V10.454H48.921V9.31507H49.1694V8.19984L49.7653 7.67781V6.56258L50.7585 7.10833V13.776L50.4109 13.9421C50.146 14.0845 49.9474 14.211 49.815 14.3218C49.666 14.4483 49.6329 14.5828 49.7156 14.7251L50.0881 14.7963L51.2552 14.2506V6.77613L48.9459 3.2406H46.2144L45.7178 3.31179C45.5688 3.37506 45.4943 3.50952 45.4943 3.71517C45.4943 4.03155 45.693 4.21347 46.0903 4.26092ZM54.7148 35.2465L54.5458 35.0843L52.253 33.5787L50.636 32.7448L49.1638 32.3741L47.2571 32.3047L44.1196 32.4205L42.6715 32.5363L42.2854 32.4668L41.5131 32.2815L40.789 32.073L40.3063 31.934L39.9926 31.6097L39.5099 30.9611L38.8341 30.0577H38.6893L35.0932 27.6487H34.7312V27.9267L37.4343 31.3549L37.5791 31.4708H37.8204L37.9653 31.4244L38.1825 31.4708L38.1583 31.7256L37.6998 32.3047V32.4205L37.555 32.5131L37.1929 32.5363C37.1125 32.5363 37.0723 32.4205 37.0723 32.1888L37.0481 32.0035L36.9516 31.8414L32.728 30.2894C32.5671 30.2894 32.4867 30.328 32.4867 30.4052V30.521C32.4062 30.521 32.366 30.5519 32.366 30.6137L32.4867 30.7758L36.4448 33.8798L37.2895 34.1809L37.8928 34.4357L38.3031 34.5979L38.4479 34.7832L38.7134 35.1307L39.0996 35.5708L39.5823 36.3352L39.8478 36.6132L39.9202 37.1691L40.065 37.9104L40.1615 38.9991L40.3063 40.3194C40.6281 41.5703 41.1671 42.7208 41.9234 43.7709C42.6957 44.8055 43.7335 45.7166 45.0367 46.5042L45.1574 46.5737C45.5114 46.8054 45.7527 46.8517 45.8815 46.7127L46.2917 46.5969L46.3642 46.3421L46.5572 46.1104L46.6296 45.7861V45.6472L46.6055 45.3692L46.2917 45.0449C45.2137 44.3809 44.361 43.5856 43.7335 42.659C43.106 41.7324 42.6715 40.7055 42.4302 39.5782L42.2371 38.1188L41.9234 36.8448L42.2854 37.0996L42.4302 37.1691L42.5267 37.0996C42.7037 36.9297 42.7037 36.8448 42.5267 36.8448L41.8027 36.2657L41.7061 36.1962V36.1267L41.1028 35.3391L40.6925 34.7137L40.9821 34.4821L41.1993 34.1346L41.5613 34.2504L41.9958 34.3894L42.5267 34.5979H42.6715L43.5887 34.5747L44.5299 34.4821L46.0021 34.2736L47.8846 34.2041C48.6409 34.2813 49.4534 34.4744 50.3223 34.7832C51.1911 35.1075 52.1485 35.6017 53.1943 36.2657L53.677 36.4742L54.0873 36.4279L54.4252 36.2657L54.6665 36.0109L54.7148 35.8951V35.2465ZM42.5267 35.4086L42.3819 35.4318C42.3176 35.4318 42.2854 35.4781 42.2854 35.5708V35.7098C42.3015 35.7561 42.3497 35.7793 42.4302 35.7793L43.3956 36.0109L43.5163 36.0572L43.6369 36.0109L43.5163 35.7793L42.5267 35.4086ZM43.7817 35.0843L42.7922 34.9222C42.76 34.9222 42.7359 34.9376 42.7198 34.9685L42.6715 35.0843C42.6715 35.2233 42.7118 35.2928 42.7922 35.2928L43.7817 35.4086H43.9748L44.0472 35.2928L43.9748 35.1538C43.9104 35.1075 43.8461 35.0843 43.7817 35.0843ZM43.1784 36.6132V36.4279L43.0094 36.3352L42.1888 35.8951L42.044 35.8488L41.9234 35.8951C41.9234 36.0495 41.9636 36.1267 42.044 36.1267L42.9129 36.6132C42.9129 36.6595 42.929 36.6672 42.9612 36.6363L43.1784 36.6132ZM30.3253 25.0398L29.4048 23.6792L28.8666 24.0147L28.9263 24.1028L29.0148 24.3163C29.0025 24.3718 29.0171 24.4761 29.0586 24.6293L29.1352 25.101L29.2359 25.7188L29.1125 25.8673L27.0518 27.1517L26.7002 27.156L26.1721 27.0374L25.5364 26.8426L23.187 28.307L22.8996 28.3786L22.5859 28.4667L22.2027 28.5622L16.551 32.0132L16.253 32.2348C16.1944 32.2952 16.1605 32.3462 16.1513 32.3878L16.1151 32.4998L8.81746 37.0484L8.64427 37.0131L8.11471 38.7401L7.52459 39.4124L7.05397 39.9027L6.77697 40.1828L6.149 40.4131L5.70477 40.5288L3.87831 41.8284L2.66022 42.7309L2.09123 43.1034L1.41332 43.508L0.929562 44.0066C0.779902 44.1715 0.669165 44.348 0.597351 44.536L3.27206 47.9375L5.71792 45.016L7.50479 42.7202L8.19274 41.8616L8.79274 41.0936L9.25552 40.5365L9.45837 40.2847C9.56382 40.1831 9.70315 40.15 9.87634 40.1853L10.2018 40.1974L10.1701 40.647L10.2451 41.5853L10.3333 42.5154L10.4092 43.0413C10.6575 43.3163 10.8989 43.4524 11.1333 43.4496C11.3708 43.4329 11.583 43.3604 11.7698 43.232L12.2181 42.7914L12.3862 42.5433C12.2769 42.2532 12.2231 41.9345 12.2245 41.5874C12.2059 41.2289 12.2174 40.8874 12.2591 40.5629L12.4123 39.7689L12.5338 39.4245C12.8807 39.459 13.1851 39.4126 13.4472 39.285L14.0385 38.8628C14.2288 38.6844 14.3877 38.4779 14.5151 38.2433L14.9515 38.0609L14.9968 37.9072L15.1326 37.8047C15.9896 38.4645 16.8415 38.9604 17.6881 39.2924C18.5461 39.6412 19.32 39.8932 20.0097 40.0483C20.8061 40.2325 21.5833 40.3332 22.3413 40.3503L22.3097 39.0625L22.2996 38.1375L22.3398 37.7005C21.2927 37.6606 20.4119 37.5171 19.6973 37.27C18.9971 37.0258 18.426 36.7609 17.9839 36.4752C17.4758 36.1472 17.0769 35.769 16.7871 35.3407L18.5852 34.2199L18.8457 34.2187C18.8859 34.2414 18.9351 34.2406 18.9933 34.2163L19.2683 34.0986L19.4836 33.8928L19.7055 33.5037L20.016 32.9699L23.9799 30.4993L23.8744 30.2606L26.3944 28.6898L26.7067 28.7101L26.7456 28.3814L30.2763 26.1808L30.8071 26.0827L30.7745 25.5657L30.932 25.4676L31.102 25.4154L31.274 25.2007L31.2544 25.0338L31.0864 24.9236L30.8582 24.7793L30.3253 25.0398ZM12.6715 38.1387L13.3718 37.6843C13.503 37.6025 13.6364 37.5791 13.772 37.6139C13.9133 37.6572 14.0293 37.7461 14.1203 37.8805L14.1982 38.2438C14.1763 38.3769 14.0997 38.4843 13.9684 38.5661L13.2596 39.0079C13.1196 39.0952 12.9687 39.1295 12.8069 39.111C12.6626 39.0815 12.5535 39.0122 12.4796 38.9031C12.3887 38.7687 12.3557 38.628 12.3807 38.4811C12.4289 38.3317 12.5258 38.2175 12.6715 38.1387Z" fill="#0B0C10" fill-opacity="0.3"/>
</svg>
